<svg width="32" height="32" viewBox="0 0 32 32" fill="none" xmlns="http://www.w3.org/2000/svg">
<g id="message-circle">
<path id="Vector" d="M15.9974 17.3307C16.7338 17.3307 17.3307 16.7338 17.3307 15.9974C17.3307 15.261 16.7338 14.6641 15.9974 14.6641C15.261 14.6641 14.6641 15.261 14.6641 15.9974C14.6641 16.7338 15.261 17.3307 15.9974 17.3307Z" fill="white"/>
<path id="Vector_2" d="M21.3333 17.3307C22.0697 17.3307 22.6667 16.7338 22.6667 15.9974C22.6667 15.261 22.0697 14.6641 21.3333 14.6641C20.597 14.6641 20 15.261 20 15.9974C20 16.7338 20.597 17.3307 21.3333 17.3307Z" fill="white"/>
<path id="Vector_3" d="M10.6693 17.3307C11.4057 17.3307 12.0026 16.7338 12.0026 15.9974C12.0026 15.261 11.4057 14.6641 10.6693 14.6641C9.93289 14.6641 9.33594 15.261 9.33594 15.9974C9.33594 16.7338 9.93289 17.3307 10.6693 17.3307Z" fill="white"/>
<path id="Vector_4" d="M25.4249 6.56978C23.2372 4.36778 20.3497 2.99807 17.2604 2.69677C14.171 2.39548 11.0733 3.18149 8.50139 4.91929C5.92943 6.65709 4.04439 9.23779 3.17122 12.2165C2.29806 15.1951 2.4915 18.3851 3.7182 21.2364C3.84606 21.5015 3.88801 21.7998 3.8382 22.0898L2.66487 27.7298C2.61967 27.946 2.6289 28.1701 2.69173 28.3819C2.75457 28.5937 2.86905 28.7865 3.02487 28.9431C3.15261 29.0699 3.3047 29.1696 3.47198 29.236C3.63926 29.3025 3.81827 29.3344 3.9982 29.3298H4.26487L9.97154 28.1831C10.2616 28.1482 10.5557 28.1896 10.8249 28.3031C13.6762 29.5298 16.8662 29.7233 19.8449 28.8501C22.8235 27.9769 25.4042 26.0919 27.142 23.5199C28.8798 20.948 29.6659 17.8503 29.3646 14.761C29.0633 11.6716 27.6935 8.78416 25.4915 6.59645L25.4249 6.56978ZM26.5315 17.7164C26.2709 19.3084 25.6525 20.8205 24.7229 22.139C23.7934 23.4574 22.5769 24.5479 21.1651 25.3283C19.7532 26.1086 18.1827 26.5586 16.5718 26.6443C14.9609 26.73 13.3516 26.4493 11.8649 25.8231C11.3376 25.5988 10.7712 25.481 10.1982 25.4764C9.94791 25.4782 9.69818 25.5005 9.45154 25.5431L5.69154 26.3031L6.45154 22.5431C6.60291 21.7288 6.50533 20.8878 6.17154 20.1298C5.54539 18.6431 5.26461 17.0337 5.35033 15.4228C5.43604 13.8119 5.88602 12.2414 6.6664 10.8296C7.44677 9.41772 8.53722 8.20125 9.85567 7.27171C11.1741 6.34218 12.6862 5.7238 14.2782 5.46312C15.9492 5.18887 17.6616 5.31641 19.2735 5.8352C20.8855 6.35398 22.3508 7.24909 23.5482 8.4465C24.7456 9.6439 25.6407 11.1092 26.1595 12.7211C26.6782 14.3331 26.8058 16.0454 26.5315 17.7164V17.7164Z" fill="white"/>
</g>
</svg>
