<svg width="55" height="54" viewBox="0 0 55 54" fill="none" xmlns="http://www.w3.org/2000/svg">
<path fill-rule="evenodd" clip-rule="evenodd" d="M28.0854 0.0135287C27.9369 2.87466e-05 27.8019 2.58624e-05 27.667 2.58624e-05C23.1378 -0.00625009 18.6801 1.1298 14.7064 3.30307C10.7327 5.47635 7.37123 8.61666 4.93297 12.4335C4.82583 12.5822 4.75009 12.7512 4.71039 12.9302C4.67068 13.1091 4.66782 13.2943 4.70201 13.4744C4.73619 13.6545 4.8067 13.8257 4.90921 13.9776C5.01173 14.1296 5.14413 14.2591 5.29832 14.3582C5.4525 14.4573 5.62525 14.524 5.80605 14.5542C5.98685 14.5844 6.17191 14.5774 6.34993 14.5337C6.52796 14.4901 6.69522 14.4106 6.84154 14.3002C6.98785 14.1898 7.11013 14.0507 7.20095 13.8915C8.06962 12.5449 9.06407 11.2838 10.1709 10.125H18.1224C17.3618 12.2766 16.7882 14.4898 16.408 16.74H16.3944C14.9829 17.0839 13.5399 17.283 12.088 17.334C11.9047 17.3444 11.7253 17.3916 11.5607 17.4728C11.396 17.554 11.2494 17.6675 11.1295 17.8065C11.0052 17.9444 10.9119 18.1073 10.856 18.2843C10.8001 18.4613 10.7829 18.6483 10.8055 18.8325C11.0288 21.1263 11.3986 23.4034 11.9125 25.65H3.42095C3.49092 24.0639 3.7262 22.4893 4.12296 20.952C4.17068 20.7798 4.18365 20.5999 4.16111 20.4226C4.13856 20.2454 4.08095 20.0744 3.99164 19.9197C3.90233 19.7649 3.7831 19.6295 3.64091 19.5213C3.49872 19.4132 3.33642 19.3344 3.16346 19.2896C2.9905 19.2448 2.81035 19.2348 2.63352 19.2604C2.45669 19.2859 2.28673 19.3464 2.13351 19.4383C1.9803 19.5302 1.84693 19.6517 1.74116 19.7957C1.63539 19.9397 1.55935 20.1033 1.51747 20.277C0.500722 24.2308 0.394122 28.3638 1.20572 32.3648C2.01732 36.3658 3.72595 40.1305 6.203 43.3756C8.68005 46.6208 11.861 49.2617 15.5063 51.0996C19.1517 52.9376 23.1665 53.9246 27.2485 53.9865C27.3835 54 27.532 54 27.667 54C27.8019 54 27.9369 54 28.0854 53.9865C35.1688 53.8745 41.9241 50.982 46.8937 45.9332C51.8632 40.8845 54.6485 34.0842 54.6485 27C54.6485 19.9158 51.8632 13.1156 46.8937 8.06681C41.9241 3.01804 35.1688 0.125558 28.0854 0.0135287ZM51.9264 25.65H43.4214C43.94 23.4037 44.3143 21.1266 44.5419 18.8325C44.5603 18.648 44.5409 18.4618 44.4848 18.285C44.4288 18.1083 44.3374 17.9449 44.2161 17.8046C44.0948 17.6644 43.9463 17.5504 43.7795 17.4695C43.6127 17.3885 43.4311 17.3425 43.2459 17.334C41.794 17.283 40.351 17.0839 38.9395 16.74H38.9259C38.5457 14.4898 37.9721 12.2766 37.2115 10.125H45.1224C49.1936 14.3067 51.6109 19.8224 51.9264 25.65V25.65ZM42.0579 7.42502H36.1044C35.4653 6.00763 34.6537 4.67455 33.688 3.45602C36.7076 4.22731 39.5498 5.57504 42.0579 7.42502ZM27.3699 2.71353C27.5675 2.69553 27.7664 2.69553 27.964 2.71353C31.0554 3.02403 34.3359 8.00552 35.9964 15.8085C33.1516 14.7081 30.6434 12.8839 28.7199 10.5165C28.5952 10.3563 28.4355 10.2268 28.2529 10.1379C28.0704 10.049 27.87 10.003 27.667 10.0035C27.4642 10.0045 27.2642 10.0511 27.0819 10.1399C26.8996 10.2287 26.7397 10.3574 26.614 10.5165C24.6905 12.8839 22.1823 14.7081 19.3375 15.8085C20.998 8.00552 24.2785 3.02403 27.3699 2.71353ZM13.2625 7.42502C15.7746 5.56198 18.6273 4.20902 21.6595 3.44253C20.691 4.6666 19.875 6.00391 19.2295 7.42502H13.2625ZM15.9625 19.602C16.9169 19.4225 17.8593 19.1836 18.784 18.8865C22.1574 17.8396 25.2126 15.9592 27.667 13.419C30.1213 15.9592 33.1765 17.8396 36.5499 18.8865C37.4746 19.1836 38.417 19.4225 39.3714 19.602C40.1274 19.7505 40.9104 19.8585 41.6934 19.9395C41.455 21.8611 41.108 23.7677 40.6539 25.65C40.4244 26.6085 40.1679 27.513 39.8844 28.35C39.859 28.442 39.8274 28.5322 39.7899 28.62C39.0463 30.9794 37.9445 33.2104 36.5229 35.235C34.4417 38.3007 31.2781 40.4661 27.667 41.2965C24.0524 40.4572 20.8861 38.2885 18.7974 35.2215C17.3833 33.1945 16.2862 30.964 15.544 28.6065C15.5066 28.5233 15.475 28.4376 15.4495 28.35C15.1795 27.513 14.923 26.6085 14.6935 25.65C14.2281 23.7694 13.8764 21.8624 13.6405 19.9395C14.4235 19.8585 15.2065 19.7505 15.9625 19.602V19.602ZM3.40746 28.35H12.628C13.4257 31.1103 14.6315 33.7357 16.2054 36.1395C16.6015 38.7722 17.2433 41.362 18.1224 43.875H10.2115C6.14034 39.6933 3.72302 34.1776 3.40746 28.35V28.35ZM13.2895 46.575H19.2295C19.8641 47.9876 20.6712 49.3163 21.6325 50.5305C18.6208 49.7668 15.7869 48.4232 13.2895 46.575V46.575ZM27.667 51.3C24.7645 51.3 21.6459 47.088 19.8099 40.203C21.9887 42.0407 24.5692 43.3402 27.3429 43.9965C27.5556 44.0505 27.7783 44.0505 27.991 43.9965C30.7627 43.3422 33.3427 42.0476 35.524 40.2165C33.688 47.088 30.5694 51.3 27.667 51.3ZM33.7014 50.544C34.6579 49.3216 35.4646 47.9891 36.1044 46.575H42.0579C39.5546 48.4248 36.717 49.7726 33.7014 50.544V50.544ZM45.1224 43.875H37.2115C38.0922 41.3727 38.7297 38.7912 39.1149 36.1665C40.6988 33.7567 41.9094 31.1215 42.7059 28.35H51.9264C51.6109 34.1776 49.1936 39.6933 45.1224 43.875V43.875Z" fill="url(#paint0_linear_90_5991)"/>
<defs>
<linearGradient id="paint0_linear_90_5991" x1="54.6485" y1="30.6739" x2="35.7896" y2="-13.7105" gradientUnits="userSpaceOnUse">
<stop stop-color="#FBE8FF" stop-opacity="0.58"/>
<stop offset="1" stop-color="#D1E0FF" stop-opacity="0.58"/>
</linearGradient>
</defs>
</svg>
