<svg width="1280" height="37" viewBox="0 0 1280 37" fill="none" xmlns="http://www.w3.org/2000/svg">
<path d="M58.3818 27.3699C35.3855 25.2523 0 16.2192 0 16.2192V0H1280V37C1280 37 1146.63 12.4086 1060.87 16.2192C1020.92 17.994 998.829 25.0889 958.9 27.3699C875.213 32.1507 828.324 14.1299 744.567 16.2192C687.944 17.6316 656.435 25.8722 599.813 27.3699C513.562 29.6512 465.154 8.83354 379.082 16.2192C347.113 18.9623 329.526 25.8571 297.507 27.3699C248.542 29.6832 221.344 15.7926 172.346 16.2192C127.709 16.6078 102.903 31.4694 58.3818 27.3699Z" fill="#4D4ED9"/>
</svg>
