<svg width="1280" height="37" viewBox="0 0 1280 37" fill="none" xmlns="http://www.w3.org/2000/svg">
<path d="M1221.62 9.63013C1244.61 11.7477 1280 20.7808 1280 20.7808L1280 37L0 36.9999L3.23464e-06 -0.000111901C3.23464e-06 -0.000111901 133.369 24.5913 219.131 20.7807C259.076 19.0059 281.171 11.9111 321.1 9.63005C404.787 4.84921 451.676 22.87 535.433 20.7808C592.056 19.3683 623.565 11.1278 680.187 9.63009C766.438 7.34873 814.846 28.1664 900.918 20.7808C932.887 18.0377 950.474 11.1428 982.493 9.63011C1031.46 7.3168 1058.66 21.2074 1107.65 20.7808C1152.29 20.3922 1177.1 5.53058 1221.62 9.63013Z" fill="#4D4ED9"/>
</svg>
