<svg width="28" height="30" viewBox="0 0 28 30" fill="none" xmlns="http://www.w3.org/2000/svg">
<g id="icon">
<path id="Vector" d="M23.9823 14.1912C23.6941 14.1912 23.4176 14.0767 23.2138 13.8728C23.0099 13.669 22.8954 13.3925 22.8954 13.1042V10.0347C22.8954 5.68691 18.878 2.20868 13.9389 2.20868C8.99985 2.20868 4.98249 5.73039 4.98249 10.0347V13.1042C4.98249 13.3925 4.86797 13.669 4.66413 13.8728C4.46029 14.0767 4.18382 14.1912 3.89554 14.1912C3.60727 14.1912 3.3308 14.0767 3.12695 13.8728C2.92311 13.669 2.80859 13.3925 2.80859 13.1042V10.0347C2.80859 4.50431 7.80855 0 13.9389 0C20.0693 0 25.0693 4.50431 25.0693 10.0347V13.1042C25.0704 13.2473 25.0431 13.3892 24.9889 13.5216C24.9347 13.654 24.8547 13.7743 24.7535 13.8754C24.6523 13.9766 24.5321 14.0566 24.3997 14.1108C24.2673 14.165 24.1254 14.1923 23.9823 14.1912V14.1912Z" fill="white"/>
<path id="Vector_2" d="M21.0433 24.4172C20.755 24.4172 20.4786 24.3027 20.2747 24.0988C20.0709 23.895 19.9564 23.6185 19.9564 23.3302V13.0086C19.9654 12.7264 20.0839 12.4588 20.2868 12.2624C20.4896 12.066 20.761 11.9563 21.0433 11.9564C24.7911 11.9564 27.8433 14.7651 27.8433 18.2085C27.8433 21.652 24.7911 24.4172 21.0433 24.4172ZM22.1303 14.2086V22.1303C23.0819 21.9727 23.951 21.4943 24.5932 20.7746C25.2354 20.0549 25.6121 19.1371 25.6607 18.1738C25.614 17.2089 25.2382 16.2891 24.5958 15.5676C23.9535 14.8461 23.0833 14.3665 22.1303 14.2086ZM6.79995 24.4172C3.05215 24.4172 0 21.6172 0 18.1738C0 14.7303 3.05215 11.9564 6.79995 11.9564C7.08822 11.9564 7.36469 12.0709 7.56853 12.2748C7.77238 12.4786 7.88689 12.7551 7.88689 13.0434V23.3302C7.88689 23.6185 7.77238 23.895 7.56853 24.0988C7.36469 24.3027 7.08822 24.4172 6.79995 24.4172V24.4172ZM5.713 14.2086C4.75997 14.3665 3.8898 14.8461 3.24742 15.5676C2.60504 16.2891 2.22923 17.2089 2.18259 18.1738C2.23116 19.1371 2.60784 20.0549 3.25005 20.7746C3.89226 21.4943 4.76136 21.9727 5.713 22.1303V14.2086Z" fill="white"/>
<path id="Vector_3" d="M20.6869 27.9565H17.0869C16.7987 27.9565 16.5222 27.842 16.3184 27.6382C16.1145 27.4343 16 27.1579 16 26.8696C16 26.5813 16.1145 26.3048 16.3184 26.101C16.5222 25.8971 16.7987 25.7826 17.0869 25.7826H20.6869C21.2496 25.7826 21.7893 25.5591 22.1872 25.1612C22.5851 24.7633 22.8086 24.2236 22.8086 23.6609V23.1827C22.8086 22.8944 22.9232 22.6179 23.127 22.4141C23.3308 22.2102 23.6073 22.0957 23.8956 22.0957C24.1839 22.0957 24.4603 22.2102 24.6642 22.4141C24.868 22.6179 24.9825 22.8944 24.9825 23.1827V23.6609C24.9825 24.8002 24.53 25.8928 23.7244 26.6984C22.9188 27.504 21.8262 27.9565 20.6869 27.9565V27.9565Z" fill="white"/>
<path id="Vector_4" d="M15.2252 30.0003H13.0774C12.2887 30.0003 11.5323 29.687 10.9745 29.1292C10.4168 28.5715 10.1035 27.8151 10.1035 27.0264V26.9046C10.1058 26.1174 10.4202 25.3632 10.9776 24.8074C11.5351 24.2516 12.2902 23.9394 13.0774 23.9395H15.2252C16.0116 23.9395 16.7658 24.2519 17.3219 24.8079C17.878 25.364 18.1904 26.1182 18.1904 26.9046V27.0264C18.1904 27.8136 17.8783 28.5687 17.3225 29.1262C16.7666 29.6836 16.0124 29.998 15.2252 30.0003ZM13.0948 26.1133C12.8841 26.1133 12.6819 26.1964 12.5322 26.3446C12.3824 26.4927 12.2971 26.694 12.2948 26.9046V27.0264C12.2948 27.2386 12.3791 27.442 12.5291 27.5921C12.6791 27.7421 12.8826 27.8264 13.0948 27.8264H15.2252C15.4359 27.8241 15.6371 27.7388 15.7853 27.589C15.9334 27.4392 16.0165 27.2371 16.0165 27.0264V26.9046C16.0165 26.6948 15.9331 26.4935 15.7847 26.3451C15.6363 26.1967 15.4351 26.1133 15.2252 26.1133H13.0948Z" fill="white"/>
</g>
</svg>
