<svg width="30" height="30" viewBox="0 0 30 30" fill="none" xmlns="http://www.w3.org/2000/svg">
<g id="icon">
<path id="Vector" d="M19.0598 10.9402C18.7785 10.659 18.397 10.501 17.9993 10.501C17.6015 10.501 17.22 10.659 16.9387 10.9402L12.4384 15.4404C12.2952 15.5788 12.1809 15.7444 12.1023 15.9274C12.0236 16.1104 11.9823 16.3072 11.9805 16.5064C11.9788 16.7056 12.0168 16.9031 12.0922 17.0875C12.1676 17.2718 12.279 17.4393 12.4198 17.5802C12.5607 17.721 12.7282 17.8324 12.9125 17.9078C13.0969 17.9833 13.2944 18.0212 13.4936 18.0195C13.6928 18.0177 13.8896 17.9764 14.0726 17.8977C14.2556 17.8191 14.4212 17.7048 14.5596 17.5616L19.0598 13.0613C19.341 12.78 19.499 12.3985 19.499 12.0007C19.499 11.603 19.341 11.2215 19.0598 10.9402V10.9402Z" fill="white"/>
<path id="Vector_2" d="M29.5612 0.439244C29.3554 0.233527 29.0943 0.0920907 28.8095 0.0321631C28.5248 -0.0277645 28.2288 -0.003596 27.9576 0.101724L0.95597 10.6023C0.672959 10.7125 0.430048 10.906 0.259358 11.1572C0.0886675 11.4083 -0.00176229 11.7054 2.60205e-05 12.0091C0.00181434 12.3128 0.0957367 12.6088 0.269373 12.8579C0.44301 13.1071 0.688182 13.2977 0.972471 13.4045L12.3341 17.6648L16.5944 29.0279C16.7013 29.3123 16.8921 29.5576 17.1415 29.7311C17.3909 29.9047 17.6871 29.9985 17.991 30H18C18.3023 29.9999 18.5976 29.9085 18.8471 29.7377C19.0966 29.567 19.2886 29.3248 19.3981 29.0429L29.8987 2.04134C30.0037 1.77031 30.0277 1.4746 29.9678 1.19018C29.9079 0.905765 29.7666 0.644879 29.5612 0.439244V0.439244ZM18.0255 24.2907L14.9038 15.9667C14.8286 15.7662 14.7114 15.5842 14.56 15.4329C14.4087 15.2815 14.2267 15.1643 14.0262 15.0891L5.69925 11.9749L25.8664 4.13396L18.0255 24.2907Z" fill="white"/>
</g>
</svg>
