<svg width="24" height="24" viewBox="0 0 24 24" fill="none" xmlns="http://www.w3.org/2000/svg">
<path d="M12.0002 3.6691C14.7132 3.6691 15.0345 3.67926 16.1063 3.72813C16.7507 3.73602 17.389 3.85435 17.9934 4.07797C18.4317 4.24701 18.8298 4.50595 19.1619 4.83813C19.4941 5.17032 19.7531 5.56837 19.9221 6.00668C20.1457 6.61109 20.264 7.24937 20.2719 7.89378C20.3203 8.96555 20.331 9.28684 20.331 11.9999C20.331 14.713 20.3208 15.0343 20.2719 16.106C20.264 16.7504 20.1457 17.3887 19.9221 17.9931C19.7531 18.4314 19.4941 18.8295 19.1619 19.1617C18.8298 19.4939 18.4317 19.7528 17.9934 19.9218C17.389 20.1455 16.7507 20.2638 16.1063 20.2717C15.035 20.3201 14.7137 20.3307 12.0002 20.3307C9.28661 20.3307 8.96532 20.3206 7.89403 20.2717C7.24962 20.2638 6.61134 20.1455 6.00693 19.9218C5.56862 19.7528 5.17056 19.4939 4.83838 19.1617C4.5062 18.8295 4.24726 18.4314 4.07822 17.9931C3.8546 17.3887 3.73627 16.7504 3.72838 16.106C3.68 15.0343 3.66935 14.713 3.66935 11.9999C3.66935 9.28684 3.67951 8.96555 3.72838 7.89378C3.73627 7.24937 3.8546 6.61109 4.07822 6.00668C4.24726 5.56837 4.5062 5.17032 4.83838 4.83813C5.17056 4.50595 5.56862 4.24701 6.00693 4.07797C6.61134 3.85435 7.24962 3.73602 7.89403 3.72813C8.9658 3.67975 9.28709 3.6691 12.0002 3.6691ZM12.0002 1.83813C9.24209 1.83813 8.89467 1.84975 7.8108 1.8991C6.96744 1.91588 6.13303 2.07556 5.34306 2.37136C4.6654 2.62668 4.05161 3.02679 3.54451 3.54378C3.02706 4.05106 2.62661 4.6652 2.37113 5.3433C2.07533 6.13326 1.91564 6.96767 1.89887 7.81104C1.85048 8.89394 1.83887 9.24136 1.83887 11.9994C1.83887 14.7575 1.85048 15.1049 1.89983 16.1888C1.91661 17.0321 2.07629 17.8666 2.37209 18.6565C2.62729 19.3345 3.02741 19.9487 3.54451 20.456C4.05189 20.9731 4.66602 21.3733 5.34403 21.6285C6.134 21.9243 6.96841 22.0839 7.81177 22.1007C8.89564 22.1491 9.24161 22.1617 12.0011 22.1617C14.7606 22.1617 15.1066 22.1501 16.1905 22.1007C17.0338 22.0839 17.8683 21.9243 18.6582 21.6285C19.333 21.3669 19.9458 20.9674 20.4574 20.4555C20.969 19.9436 21.3681 19.3305 21.6292 18.6556C21.925 17.8656 22.0847 17.0312 22.1014 16.1878C22.1498 15.1049 22.1614 14.7575 22.1614 11.9994C22.1614 9.24136 22.1498 8.89394 22.1005 7.81007C22.0837 6.96671 21.924 6.13229 21.6282 5.34233C21.373 4.66432 20.9729 4.05019 20.4558 3.54281C19.9484 3.02571 19.3343 2.62559 18.6563 2.37039C17.8663 2.07459 17.0319 1.91491 16.1885 1.89813C15.1056 1.84975 14.7582 1.83813 12.0002 1.83813Z" fill="#101828"/>
<path d="M12.0013 6.78345C10.9692 6.78345 9.96037 7.08948 9.10227 7.66285C8.24416 8.23622 7.57535 9.05117 7.18041 10.0046C6.78546 10.9581 6.68213 12.0073 6.88347 13.0195C7.08481 14.0317 7.58178 14.9615 8.31154 15.6912C9.0413 16.421 9.97107 16.918 10.9833 17.1193C11.9955 17.3207 13.0447 17.2173 13.9981 16.8224C14.9516 16.4274 15.7666 15.7586 16.3399 14.9005C16.9133 14.0424 17.2193 13.0335 17.2193 12.0015C17.2193 10.6176 16.6696 9.29036 15.691 8.31178C14.7124 7.33321 13.3852 6.78345 12.0013 6.78345ZM12.0013 15.3886C11.3314 15.3886 10.6765 15.19 10.1195 14.8178C9.56249 14.4456 9.12836 13.9166 8.872 13.2977C8.61564 12.6788 8.54856 11.9978 8.67926 11.3407C8.80995 10.6837 9.13254 10.0802 9.60623 9.60647C10.0799 9.13278 10.6834 8.81019 11.3405 8.6795C11.9975 8.5488 12.6785 8.61588 13.2975 8.87224C13.9164 9.1286 14.4454 9.56274 14.8175 10.1197C15.1897 10.6767 15.3884 11.3316 15.3884 12.0015C15.3884 12.8998 15.0315 13.7613 14.3963 14.3966C13.7611 15.0318 12.8996 15.3886 12.0013 15.3886Z" fill="#101828"/>
<path d="M17.4244 7.7954C18.0979 7.7954 18.6438 7.24948 18.6438 6.57604C18.6438 5.90261 18.0979 5.35669 17.4244 5.35669C16.751 5.35669 16.2051 5.90261 16.2051 6.57604C16.2051 7.24948 16.751 7.7954 17.4244 7.7954Z" fill="#101828"/>
</svg>
