<svg width="24" height="24" viewBox="0 0 24 24" fill="none" xmlns="http://www.w3.org/2000/svg">
<path d="M20.38 6.79716C19.7515 7.07651 19.088 7.2511 18.3897 7.35586C19.088 6.93684 19.6467 6.27339 19.8912 5.47026C19.2277 5.85436 18.4944 6.13371 17.6913 6.3083C17.0628 5.64485 16.1549 5.22583 15.1772 5.22583C13.2916 5.22583 11.7552 6.76224 11.7552 8.64785C11.7552 8.92719 11.7901 9.17162 11.8599 9.41605C9.03151 9.27638 6.48246 7.91456 4.77145 5.81945C4.4921 6.34322 4.31751 6.90192 4.31751 7.53045C4.31751 8.71768 4.91113 9.76524 5.85393 10.3938C5.29523 10.3589 4.77145 10.2192 4.28259 9.97475V10.0097C4.28259 11.6858 5.46982 13.0825 7.04116 13.3968C6.76181 13.4666 6.44754 13.5015 6.13327 13.5015C5.92376 13.5015 5.67933 13.4666 5.46982 13.4317C5.92376 14.7935 7.18083 15.8061 8.68233 15.8061C7.4951 16.714 6.02852 17.2727 4.42227 17.2727C4.14292 17.2727 3.86357 17.2727 3.61914 17.2378C5.15556 18.2155 6.9364 18.7742 8.89184 18.7742C15.2121 18.7742 18.669 13.5364 18.669 8.99703C18.669 8.85736 18.669 8.68276 18.669 8.54309C19.3325 8.08915 19.9261 7.49553 20.38 6.79716Z" fill="#101828"/>
</svg>
